<!DOCTYPE svg PUBLIC "-//W3C//DTD SVG 20010904//EN" "http://www.w3.org/TR/2001/REC-SVG-20010904/DTD/svg10.dtd">
<svg version="1.0" xmlns="http://www.w3.org/2000/svg" width="38.000000pt" height="38.000000pt" viewBox="0 0 10240 10240" preserveAspectRatio="xMidYMid meet">
<g id="layer1" fill="#c24925" stroke="none">
 <path d="M3193 6184 c-18 -9 -41 -31 -52 -48 -10 -17 -55 -179 -100 -361 -44 -181 -139 -568 -211 -860 -266 -1075 -310 -1258 -310 -1281 0 -37 25 -88 53 -111 33 -26 220 -73 288 -73 46 0 55 4 89 38 30 30 40 51 53 107 9 39 77 315 151 615 73 300 148 606 165 680 18 74 86 356 153 625 66 270 122 508 124 530 6 50 -20 103 -62 127 -46 27 -296 36 -341 12z"/>
 </g>
<g id="layer2" fill="#ef8518" stroke="none">
 <path d="M5364 9576 c-32 -32 -34 -38 -34 -99 0 -52 175 -762 926 -3762 509 -2034 934 -3726 945 -3761 25 -81 70 -124 132 -124 90 0 132 53 123 155 -4 56 -1852 7455 -1878 7520 -28 72 -70 104 -136 105 -37 0 -50 -6 -78 -34z"/>
 <path d="M4703 7580 c-37 -15 -63 -68 -63 -129 0 -39 196 -813 706 -2784 388 -1502 712 -2743 719 -2758 24 -46 72 -79 115 -79 81 0 116 32 126 117 6 43 -82 392 -700 2783 -389 1504 -716 2755 -728 2778 -33 70 -106 100 -175 72z"/>
 <path d="M3582 5975 c-6 -22 -61 -246 -123 -497 l-111 -457 557 -2213 c306 -1217 564 -2229 573 -2248 21 -43 75 -80 118 -80 46 0 243 49 277 68 28 17 67 84 67 117 0 19 -1326 5292 -1340 5330 -6 17 -9 14 -18 -20z"/>
 </g>

</svg>